<?xml version="1.0" standalone="no"?>
<!DOCTYPE svg PUBLIC "-//W3C//DTD SVG 20010904//EN"
 "http://www.w3.org/TR/2001/REC-SVG-20010904/DTD/svg10.dtd">
<svg version="1.0" xmlns="http://www.w3.org/2000/svg"
 width="283.000000pt" height="128.000000pt" viewBox="0 0 283.000000 128.000000"
 preserveAspectRatio="xMidYMid meet">

<g transform="translate(0.000000,128.000000) scale(0.100000,-0.100000)"
fill="#000000" stroke="none">
<path d="M716 1170 c-72 -28 -121 -66 -160 -123 -57 -84 -66 -138 -66 -410 l0
-238 25 -24 c28 -29 51 -31 83 -9 21 14 22 22 22 150 l0 134 79 0 c88 0 131
21 131 65 0 49 -28 64 -120 67 l-85 3 -3 30 c-6 50 17 129 48 167 36 43 103
78 151 78 50 0 79 24 79 64 0 19 -8 40 -18 49 -25 23 -104 21 -166 -3z"/>
<path d="M1193 1176 c-94 -30 -178 -109 -213 -202 -17 -48 -20 -78 -20 -239 0
-205 3 -215 65 -215 59 0 65 20 65 216 0 160 2 174 23 215 28 53 91 95 162
108 48 9 85 37 85 66 0 7 -9 24 -21 39 -16 21 -29 26 -62 25 -23 0 -61 -6 -84
-13z"/>
<path d="M1525 1176 c-143 -63 -162 -268 -33 -353 38 -26 52 -28 161 -33 110
-5 120 -7 138 -29 23 -28 24 -60 5 -87 -13 -17 -31 -19 -196 -24 -165 -5 -183
-7 -196 -24 -19 -27 -18 -70 4 -89 16 -15 45 -17 201 -17 203 0 227 5 278 63
90 102 62 251 -58 311 -47 23 -65 26 -155 26 -100 0 -103 1 -124 27 -25 32
-20 69 12 96 16 13 39 17 109 17 76 0 92 3 109 20 25 25 26 72 2 93 -24 22
-211 23 -257 3z"/>
<path d="M210 980 c-19 -19 -20 -33 -20 -305 0 -272 1 -286 20 -305 28 -28 64
-25 89 6 20 26 21 39 21 301 l0 274 -25 24 c-29 30 -58 32 -85 5z"/>
<path d="M456 226 l-29 -22 27 -27 c38 -38 33 -47 -29 -47 l-55 0 0 55 c0 30
-4 55 -10 55 -13 0 -13 -86 0 -111 9 -15 22 -19 70 -19 59 0 60 0 60 28 0 16
-9 37 -21 47 l-20 19 23 17 c12 10 20 20 17 23 -2 3 -18 -5 -33 -18z"/>
<path d="M800 185 c0 -52 -1 -55 -25 -55 -21 0 -25 5 -25 30 0 17 -4 30 -10
30 -5 0 -10 -13 -10 -30 0 -20 -5 -30 -15 -30 -10 0 -15 10 -15 31 0 17 -4 28
-10 24 -5 -3 -10 -17 -10 -31 0 -34 -28 -31 -33 4 l-4 27 -2 -27 c-1 -26 -4
-28 -46 -28 -43 0 -45 1 -45 30 0 17 -4 30 -10 30 -5 0 -10 -22 -10 -48 0 -26
-5 -53 -12 -60 -8 -8 -8 -12 -1 -12 6 0 17 9 24 20 13 19 26 21 144 23 l130 2
3 63 c2 38 -1 62 -8 62 -6 0 -10 -23 -10 -55z"/>
<path d="M853 175 c0 -38 2 -53 4 -32 2 20 2 52 0 70 -2 17 -4 1 -4 -38z"/>
<path d="M1093 175 c0 -38 2 -53 4 -32 2 20 2 52 0 70 -2 17 -4 1 -4 -38z"/>
<path d="M1440 185 c0 -42 -3 -55 -15 -55 -8 0 -15 -5 -15 -10 0 -7 110 -10
328 -8 l327 3 1 65 c1 64 1 64 -3 8 l-4 -58 -34 0 c-31 0 -34 3 -38 33 l-4 32
-1 -32 c-2 -28 -6 -33 -26 -33 -17 0 -30 10 -45 35 -13 22 -28 35 -41 35 -27
0 -26 -18 1 -22 12 -2 26 -13 30 -25 8 -22 6 -23 -50 -23 -53 0 -59 2 -54 19
2 10 -3 26 -13 35 -16 17 -28 17 -66 1 -15 -6 -18 -2 -18 24 0 17 -4 31 -10
31 -5 0 -10 -25 -10 -55 0 -54 0 -55 -30 -55 -27 0 -30 3 -30 30 0 17 -4 30
-10 30 -5 0 -10 -13 -10 -30 0 -25 -4 -30 -25 -30 -20 0 -25 5 -25 24 0 36
-23 50 -60 38 -29 -11 -30 -10 -30 19 0 16 -4 29 -10 29 -5 0 -10 -25 -10 -55z
m94 -21 c9 -24 -2 -34 -40 -34 -38 0 -47 22 -16 39 25 15 49 13 56 -5z m244
-11 c3 -21 -1 -23 -37 -23 -44 0 -56 20 -23 39 27 17 57 9 60 -16z"/>
<path d="M1978 233 c6 -2 18 -2 25 0 6 3 1 5 -13 5 -14 0 -19 -2 -12 -5z"/>
<path d="M2630 174 c0 -41 4 -63 10 -59 6 3 10 33 10 66 0 33 -4 59 -10 59 -6
0 -10 -29 -10 -66z"/>
<path d="M258 213 c6 -2 18 -2 25 0 6 3 1 5 -13 5 -14 0 -19 -2 -12 -5z"/>
<path d="M320 170 c-5 -34 -6 -35 -52 -38 -43 -3 -48 -1 -48 17 0 12 -4 21
-10 21 -14 0 -13 -33 2 -48 7 -7 34 -12 60 -12 54 0 62 8 56 62 l-4 33 -4 -35z"/>
<path d="M950 190 c0 -5 9 -10 20 -10 15 0 20 -7 20 -25 0 -21 -5 -25 -30 -25
-16 0 -30 -4 -30 -10 0 -5 18 -10 40 -10 39 0 40 1 40 33 0 18 -5 38 -12 45
-15 15 -48 16 -48 2z"/>
<path d="M1146 184 c-29 -29 -13 -74 26 -74 23 0 23 -16 1 -29 -13 -7 -14 -10
-4 -11 19 0 67 53 52 58 -6 2 -11 19 -11 38 0 29 -3 34 -24 34 -14 0 -32 -7
-40 -16z m44 -29 c0 -18 -5 -25 -20 -25 -20 0 -28 28 -13 43 15 16 33 6 33
-18z"/>
<path d="M1280 180 c-11 -11 -17 -26 -14 -35 4 -10 0 -15 -10 -15 -9 0 -16 -4
-16 -10 0 -5 25 -10 55 -10 l55 0 0 45 c0 41 -2 45 -25 45 -14 0 -34 -9 -45
-20z m50 -25 c0 -18 -5 -25 -19 -25 -11 0 -23 5 -26 10 -11 18 3 40 25 40 15
0 20 -7 20 -25z"/>
<path d="M2455 180 c-9 -10 -15 -26 -12 -35 5 -12 -1 -15 -28 -15 -32 0 -35 2
-36 33 -1 24 -4 20 -9 -18 -4 -27 -11 -59 -15 -70 -8 -18 -7 -19 8 -6 9 7 17
19 17 27 0 10 26 14 108 16 l107 3 3 38 c2 21 -1 37 -7 37 -6 0 -11 -13 -11
-30 0 -27 -3 -30 -30 -30 -28 0 -30 3 -30 35 0 30 -3 35 -23 35 -13 0 -32 -9
-42 -20z m55 -25 c0 -20 -5 -25 -25 -25 -18 0 -25 5 -25 18 0 24 8 32 32 32
13 0 18 -7 18 -25z"/>
<path d="M1040 142 c0 -26 -5 -53 -12 -60 -9 -9 -9 -12 0 -12 6 0 16 9 22 19
13 25 13 101 0 101 -5 0 -10 -22 -10 -48z"/>
<path d="M2228 184 c-5 -4 -8 -25 -8 -46 0 -38 -1 -39 -32 -36 -25 2 -34 9
-39 28 -7 23 -7 23 -8 -6 -1 -21 5 -34 15 -38 27 -10 57 -7 75 10 10 9 35 17
56 17 37 2 38 3 39 42 1 32 1 34 -3 8 -3 -23 -10 -33 -22 -33 -14 0 -17 6 -13
25 2 15 0 25 -7 25 -6 0 -11 -11 -11 -25 0 -37 -28 -32 -32 6 -2 17 -6 27 -10
23z"/>
<path d="M1598 73 c6 -2 18 -2 25 0 6 3 1 5 -13 5 -14 0 -19 -2 -12 -5z"/>
<path d="M2568 73 c6 -2 18 -2 25 0 6 3 1 5 -13 5 -14 0 -19 -2 -12 -5z"/>
</g>
</svg>
