<svg id="Layer_1" data-name="Layer 1" xmlns="http://www.w3.org/2000/svg" viewBox="0 0 550.79 196.31"><defs><style>.cls-1,.cls-3,.cls-4{fill:#63bc62;}.cls-2{fill:#663290;}.cls-3{font-size:77.58px;}.cls-3,.cls-4{font-family:AmpleSoft-Bold, AmpleSoft;font-weight:700;}.cls-4{font-size:23.75px;}</style></defs><path class="cls-1" d="M60.68,45.74A21.66,21.66,0,0,1,44.59,39,22.23,22.23,0,0,1,38,22.87,22.23,22.23,0,0,1,44.59,6.72,21.66,21.66,0,0,1,60.68,0,22.31,22.31,0,0,1,77,6.72a21.92,21.92,0,0,1,6.76,16.15A21.92,21.92,0,0,1,77,39,22.31,22.31,0,0,1,60.68,45.74Z" transform="translate(-38)"/><path class="cls-2" d="M60.75,49.68A13.71,13.71,0,0,1,70.92,54a14.47,14.47,0,0,1,4.23,10.46v111.1A14.45,14.45,0,0,1,70.92,186a13.67,13.67,0,0,1-10.17,4.34,13.29,13.29,0,0,1-10-4.34,14.67,14.67,0,0,1-4.11-10.45V64.48A14.7,14.7,0,0,1,50.7,54,13.32,13.32,0,0,1,60.75,49.68Z" transform="translate(-38)"/><text class="cls-3" transform="translate(409.06 154.5)">ERP</text><path class="cls-2" d="M198.18,11.58a13.87,13.87,0,0,1,4.23,10.17,13.51,13.51,0,0,1-4.23,10.06A14,14,0,0,1,188,35.92h-1.37a44.06,44.06,0,0,0-17.6,3.54,44.67,44.67,0,0,0-23.87,23.88,43.85,43.85,0,0,0-3.55,17.59V96.24h30.62a14.07,14.07,0,0,1,10.17,4.11,13.48,13.48,0,0,1,4.23,10.05,14.44,14.44,0,0,1-14.4,14.4H141.63V176a14.07,14.07,0,0,1-4.11,10.17,13.5,13.5,0,0,1-10.05,4.22A14.43,14.43,0,0,1,113.07,176v-95a71.31,71.31,0,0,1,5.83-28.56A74,74,0,0,1,158,13.18a71,71,0,0,1,28.68-5.82H188A13.87,13.87,0,0,1,198.18,11.58Z" transform="translate(-38)"/><path class="cls-2" d="M297.12,11.81a13.25,13.25,0,0,1,4,9.71,13.88,13.88,0,0,1-4.22,10.17,13.87,13.87,0,0,1-10.17,4.23h-1.14a45,45,0,0,0-39.65,27.87,44.36,44.36,0,0,0-3.31,17.14v59.41a13.48,13.48,0,0,1-4.23,10,14,14,0,0,1-10.16,4.11,14,14,0,0,1-14.17-14.16V80.93a71.11,71.11,0,0,1,5.6-28.22,75.63,75.63,0,0,1,15.19-23.08,73.83,73.83,0,0,1,22.62-15.88,72,72,0,0,1,27.88-6.39h2A15,15,0,0,1,297.12,11.81Z" transform="translate(-38)"/><path class="cls-2" d="M428.38,110.75a42.68,42.68,0,0,1-3.4,16.86,44.87,44.87,0,0,1-9.18,13.9A43.9,43.9,0,0,1,402.06,151a41,41,0,0,1-16.86,3.53H322.13A13.87,13.87,0,0,1,312,150.31a14.14,14.14,0,0,1,0-20.17,13.88,13.88,0,0,1,10.16-4.2h62.61a14.46,14.46,0,0,0,10.62-4.49,14.67,14.67,0,0,0,4.46-10.7,14.92,14.92,0,0,0-4.46-10.93,14.43,14.43,0,0,0-10.62-4.5H355A43.09,43.09,0,0,1,337.9,91.9a43.65,43.65,0,0,1-23.31-23.31,43.11,43.11,0,0,1-3.42-17.14,43.09,43.09,0,0,1,3.42-17.13A44.13,44.13,0,0,1,324,20.38a46.07,46.07,0,0,1,13.82-9.48,41.1,41.1,0,0,1,17-3.54h29A14,14,0,0,1,394,11.55a13.7,13.7,0,0,1,4.23,10.09A13.69,13.69,0,0,1,394,31.73a14,14,0,0,1-10.2,4.19H354.64a15.09,15.09,0,0,0-10.55,4.64,14.87,14.87,0,0,0-4.36,10.89,15,15,0,0,0,4.34,10.79,14.26,14.26,0,0,0,10.74,4.52h29.7a41.91,41.91,0,0,1,17.14,3.54,45.69,45.69,0,0,1,13.93,9.45A43.83,43.83,0,0,1,425,93.66,42.73,42.73,0,0,1,428.38,110.75Z" transform="translate(-38)"/><text class="cls-4" transform="translate(176.06 190.37)">ENTERPRISE RESOCURE PLANNING</text></svg>