<svg id="Layer_1" data-name="Layer 1" xmlns="http://www.w3.org/2000/svg" xmlns:xlink="http://www.w3.org/1999/xlink" viewBox="0 0 70 70"><defs><style>.cls-1{fill:none;}.cls-2{fill:#455a64;}.cls-3{fill:#263238;}.cls-4{fill:#bdbcbc;}.cls-5{fill:#db3328;}.cls-6{fill:#485143;}.cls-7{fill:#747e6c;}.cls-8{fill:#b5100b;}.cls-9{fill:#ebeadf;}.cls-10{fill:#323d2c;}.cls-11{fill:#1c2617;}.cls-12{fill:#c4c1ab;}.cls-13{fill:#e67368;}.cls-14{clip-path:url(#clip-path);}</style><clipPath id="clip-path"><path class="cls-1" d="M47.47,9.6l-7.34,5L22,23.26l3.81-4.65,8.79-6A17.66,17.66,0,0,1,45,9.54Z"/></clipPath></defs><path class="cls-2" d="M26,63.68a5,5,0,1,1-5-5.1A5.08,5.08,0,0,1,26,63.68Z"/><path class="cls-2" d="M48.68,63.68a5,5,0,1,1-5-5.1A5.08,5.08,0,0,1,48.68,63.68Z"/><path class="cls-3" d="M18,65.84a5.07,5.07,0,0,1,5-5.1,4.9,4.9,0,0,1,2.33.58,5,5,0,0,0-9.51,2.36,5.11,5.11,0,0,0,2.71,4.52A5.2,5.2,0,0,1,18,65.84Z"/><path class="cls-3" d="M40.73,65.84a5.07,5.07,0,0,1,5.05-5.1,5,5,0,0,1,2.33.58,5,5,0,0,0-9.52,2.36,5.12,5.12,0,0,0,2.72,4.52A5.09,5.09,0,0,1,40.73,65.84Z"/><path class="cls-4" d="M61.29,16.79H56.16L52,39.73H16l-4.39-28.1a6.15,6.15,0,0,0-5.83-5h-5v5.1H6.55l6.38,40.82A3.06,3.06,0,0,0,15.84,55h40.4v-5.1H17.63l-.8-5.1H56.24Z"/><path class="cls-5" d="M54.77,4.9,50.64,7.73H44.32a17.57,17.57,0,0,0-10,3.07L24,17.83,14.46,29.77l.89,1.34,1.08-.74,2.84,4.26-1.08.73,2.25,3.37,3.24,1.11L70,8.24,68.38,5.88l-.63-3.5-3.41-.17A15.55,15.55,0,0,0,54.77,4.9Z"/><path class="cls-6" d="M22.11,21.16l-1.66,1.13-6,7.48,2.07-1.34Z"/><path class="cls-7" d="M41.46,7.94l-1.1.75,8.79.05,1.49-1-6.33,0A14.18,14.18,0,0,0,41.46,7.94Z"/><path class="cls-8" d="M70,8.24,23.68,39.84l-3.24-1.11L68.43,6Z"/><path class="cls-8" d="M21.39,33.18l-2.12,1.45-2.84-4.26,2.12-1.45,2.65,1.72Z"/><path class="cls-6" d="M47.47,9.6l-7.34,5L22,23.26l3.81-4.65,8.79-6A17.66,17.66,0,0,1,45,9.54Z"/><path class="cls-8" d="M54.85,15.1,38.26,25l-5.62-1.78,2.22-3.6L52,11.43A1.06,1.06,0,0,1,51.59,13L37.18,20.58,36.39,22l2.72.46,14.44-7.67A1,1,0,0,1,54.85,15.1Z"/><path class="cls-9" d="M64.39,4l3-2.07.66,1L65.05,5Z"/><ellipse class="cls-10" cx="29.02" cy="32.77" rx="5.76" ry="5.82"/><path class="cls-6" d="M26,27.8a5.25,5.25,0,0,0-1.1.88.43.43,0,0,0,.55.65l.07,0a5.74,5.74,0,0,1,8,1.57l0,.07a.43.43,0,0,0,.75-.4,6,6,0,0,0-.69-1.23A5.73,5.73,0,0,0,26,27.8Z"/><path class="cls-11" d="M32.72,33.65a5.76,5.76,0,0,1-7.47-1.46l0-.06a1.09,1.09,0,0,0-2,.67A5.76,5.76,0,0,0,34.35,35a1.09,1.09,0,0,0-1.57-1.36l-.06,0Z"/><ellipse class="cls-7" cx="29.02" cy="32.77" rx="2.82" ry="2.86"/><path class="cls-12" d="M27.63,30.28a2,2,0,0,0-.38.26.24.24,0,0,0,.27.39l0,0a2.82,2.82,0,0,1,3.51.68l0,0a.24.24,0,0,0,.4-.25,2.65,2.65,0,0,0-.26-.39A2.8,2.8,0,0,0,27.63,30.28Z"/><path class="cls-6" d="M30.67,33.48a2.81,2.81,0,0,1-3.45-.68l0,0a.56.56,0,0,0-1,.43,2.94,2.94,0,0,0,.57,1.34,2.81,2.81,0,0,0,4.65-.31.56.56,0,0,0-.75-.77Z"/><path class="cls-13" d="M17,30l.76-.52,2.84,4.26-.75.52Z"/><ellipse class="cls-10" cx="60.77" cy="11.09" rx="5.76" ry="5.82"/><path class="cls-11" d="M64.47,12A5.76,5.76,0,0,1,57,10.5l0-.05a1.09,1.09,0,0,0-2,.67,5.87,5.87,0,0,0,1.15,3.44,5.75,5.75,0,0,0,9.95-1.27,1.09,1.09,0,0,0-1.57-1.36l-.06,0Z"/><ellipse class="cls-7" cx="60.75" cy="11.1" rx="2.82" ry="2.86"/><path class="cls-6" d="M57.75,6.13a5.59,5.59,0,0,0-1.1.88.43.43,0,0,0,.55.65l.07,0a5.76,5.76,0,0,1,8,1.57l0,.07a.42.42,0,0,0,.74-.4,6.29,6.29,0,0,0-.69-1.23,5.73,5.73,0,0,0-7.61-1.49Z"/><path class="cls-12" d="M59.36,8.61a3.19,3.19,0,0,0-.38.26.24.24,0,0,0,.27.39l0,0a2.81,2.81,0,0,1,3.51.69l0,0a.24.24,0,0,0,.4-.26A2.65,2.65,0,0,0,63,9.31,2.8,2.8,0,0,0,59.36,8.61Z"/><path class="cls-6" d="M62.4,11.81A2.79,2.79,0,0,1,59,11.14l0,0a.55.55,0,0,0-1,.42,2.85,2.85,0,0,0,.58,1.34,2.81,2.81,0,0,0,4.64-.3.56.56,0,0,0-.75-.77Z"/><path class="cls-13" d="M40.66,15.41l7.34-5,3.17-1.87,8.57-5.85a16.57,16.57,0,0,0-5,2.23v0L50.64,7.73,47.47,9.6l-7.34,5L22,23.27l-7.55,6.5.56.85,7.73-6.26Z"/><g class="cls-14"><path class="cls-7" d="M36.1,18.71,34.35,19.9l-9.49-1.82,1.75-1.2Z"/></g><g class="cls-14"><path class="cls-7" d="M41.4,15.09l-3.66,2.5-9.49-1.82,3.65-2.5Z"/></g><path class="cls-10" d="M33.56,17.76l-2.21,1-1.82-2.72,2-1.37Z"/><path class="cls-6" d="M14.46,29.77l2-1.39"/></svg>